<svg viewBox="0 0 18 18" fill="none" xmlns="http://www.w3.org/2000/svg">
<g clip-path="url(#clip0_1982_2631)">
<path d="M16.214 5.70189H15.9115C15.6729 5.70189 15.4795 5.50846 15.4795 5.26989C15.4795 5.03132 15.6729 4.83789 15.9115 4.83789H16.214C16.4526 4.83789 16.646 5.03132 16.646 5.26989C16.646 5.50846 16.4526 5.70189 16.214 5.70189Z" fill="black"/>
<path d="M16.934 1.64293H14.796V0.609734C14.796 0.371162 14.6026 0.177734 14.364 0.177734C14.1254 0.177734 13.932 0.371162 13.932 0.609734V1.64293H4.068V0.609734C4.068 0.371162 3.87457 0.177734 3.636 0.177734C3.39743 0.177734 3.204 0.371162 3.204 0.609734V1.64293H1.01945C0.457308 1.64293 0 2.10028 0 2.66238V16.6984C0 17.3185 0.504468 17.823 1.12457 17.823H16.8742C17.495 17.823 18 17.3179 18 16.6972V2.70897C18 2.12116 17.5218 1.64293 16.934 1.64293V1.64293ZM17.136 16.6972C17.136 16.8416 17.0186 16.959 16.8742 16.959H1.12457C0.980892 16.959 0.864 16.8421 0.864 16.6985V5.70273H14.5198C14.7584 5.70273 14.9518 5.5093 14.9518 5.27073C14.9518 5.03215 14.7584 4.83873 14.5198 4.83873H0.864V2.66238C0.864 2.57667 0.933732 2.50693 1.01945 2.50693H3.204V3.02173C3.204 3.26031 3.39743 3.45373 3.636 3.45373C3.87457 3.45373 4.068 3.26031 4.068 3.02173V2.50693H13.932V3.02173C13.932 3.26031 14.1254 3.45373 14.364 3.45373C14.6026 3.45373 14.796 3.26031 14.796 3.02173V2.50693H16.934C17.0454 2.50693 17.136 2.59758 17.136 2.70897V16.6972Z" fill="black"/>
<path d="M7.35348 14.5528L5.13988 13.0293C4.94335 12.894 4.89367 12.625 5.02892 12.4285C5.16418 12.2319 5.43317 12.1823 5.62969 12.3176L7.5423 13.6339L12.3048 8.71642C12.4708 8.54502 12.7443 8.54066 12.9157 8.70666C13.0871 8.87266 13.0915 9.14615 12.9255 9.31751L7.90871 14.4975C7.80596 14.6035 7.48196 14.6556 7.35348 14.5528V14.5528Z" fill="black"/>
</g>
<defs>
<clipPath id="clip0_1982_2631">
<rect width="18" height="18" fill="white"/>
</clipPath>
</defs>
</svg>
