<svg viewBox="0 0 14 18" fill="none" xmlns="http://www.w3.org/2000/svg">
<path d="M7 18C5.40588 18 0.25 10.5859 0.25 6.7868C0.25 3.04459 3.27811 0 7 0C10.7219 0 13.75 3.04459 13.75 6.7868C13.75 10.5859 8.59412 18 7 18ZM7 1.125C3.89828 1.125 1.375 3.66476 1.375 6.7868C1.375 10.2112 5.91647 16.3306 7 16.8574C8.08353 16.3306 12.625 10.2112 12.625 6.7868C12.625 3.66476 10.1017 1.125 7 1.125ZM7 9.64545C5.44928 9.64545 4.1875 8.38367 4.1875 6.83295C4.1875 5.28223 5.44928 4.02045 7 4.02045C8.55072 4.02045 9.8125 5.28223 9.8125 6.83295C9.8125 8.38367 8.55072 9.64545 7 9.64545ZM7 5.14545C6.06946 5.14545 5.3125 5.9024 5.3125 6.83295C5.3125 7.76349 6.06946 8.52045 7 8.52045C7.93054 8.52045 8.6875 7.76349 8.6875 6.83295C8.6875 5.9024 7.93054 5.14545 7 5.14545Z" fill="black"/>
</svg>
