<svg viewBox="0 0 18 14" fill="none" xmlns="http://www.w3.org/2000/svg">
<path d="M17.6178 8.56351H12.2747V4.79501C12.2747 2.319 9.51993 0.302734 6.1208 0.302734C2.72155 0.302734 -0.0332031 2.319 -0.0332031 4.79501V9.24765C-0.0332031 11.5282 2.30169 13.4106 5.30988 13.6965H5.37147C5.62116 13.7184 5.8746 13.7364 6.13165 13.7364H17.6178C17.8176 13.7364 17.9798 13.5743 17.9798 13.3744V8.92539C17.9798 8.72567 17.8176 8.56351 17.6178 8.56351ZM6.13888 1.03025C9.12525 1.03025 11.5689 2.72078 11.5689 4.79875C11.5689 6.8766 9.13984 8.56712 6.13888 8.56712C3.13792 8.56712 0.708903 6.8766 0.708903 4.79862C0.708903 2.72078 3.15599 1.03025 6.13888 1.03025ZM11.5689 6.90913V8.56351H9.46919C10.2888 8.19207 11.0038 7.62374 11.5507 6.90913H11.5689ZM17.2558 13.0124H16.5317V11.1806C16.5317 10.9809 16.3696 10.8186 16.1698 10.8186C15.97 10.8186 15.8078 10.9808 15.8078 11.1806V13.016H14.3598V12.0205C14.3598 11.8206 14.1976 11.6585 13.9977 11.6585C13.7979 11.6585 13.6357 11.8206 13.6357 12.0205V13.016H12.1878V12.0205C12.1878 11.8206 12.0256 11.6585 11.8258 11.6585C11.6259 11.6585 11.4638 11.8206 11.4638 12.0205V13.016H10.0157V11.1806C10.0157 10.9809 9.85354 10.8186 9.65368 10.8186C9.45396 10.8186 9.29167 10.9808 9.29167 11.1806V13.016H7.90532V12.0205C7.90532 11.8206 7.74303 11.6585 7.5433 11.6585C7.34345 11.6585 7.18129 11.8206 7.18129 12.0205V13.016H6.13862C6.00112 13.016 5.86724 13.016 5.73323 13.016V12.0205C5.73323 11.8206 5.57107 11.6585 5.37121 11.6585C5.17135 11.6585 5.00919 11.8206 5.00919 12.0205V12.9291C2.56598 12.5671 0.726978 11.054 0.726978 9.24403V6.90913C1.76229 8.32453 3.80037 9.28741 6.15695 9.28741H17.2558V13.0124Z" fill="black"/>
</svg>
