<svg viewBox="0 0 95 24" fill="none" xmlns="http://www.w3.org/2000/svg">
<path fill-rule="evenodd" clip-rule="evenodd" d="M4.09871 0.0394804C2.871 0.178085 1.5588 0.795586 0.508546 1.72887L0 2.18074V13.0904V24H30.2892H60.5783V13.0705C60.5783 3.52767 60.5599 2.11657 60.4332 1.94895C60.1787 1.61208 59.0632 0.847226 58.4247 0.571819C58.0851 0.425283 57.5463 0.242971 57.2275 0.166729C56.4859 -0.0107177 54.9557 -0.0120687 54.2054 0.164116C53.3854 0.356613 52.1554 0.940592 51.5811 1.40985C51.2732 1.66155 49.6753 3.61472 47.2642 6.68647C45.1588 9.36881 43.4098 11.5625 43.3776 11.5613C43.3453 11.5602 41.6188 9.39026 39.5411 6.73919C35.4753 1.55161 35.1437 1.19203 33.9029 0.624359C32.7547 0.0991391 32.1279 0.0077561 29.9488 0.0481299C28.1989 0.0804831 28.0021 0.10103 27.3971 0.314525C26.5042 0.629585 25.7448 1.06649 25.1486 1.60811C24.8741 1.85757 23.7985 3.1553 22.7586 4.49196C21.3176 6.34393 17.3743 11.4014 17.264 11.5389C17.255 11.5502 16.0688 10.0904 14.6282 8.29485C13.1874 6.49939 11.4064 4.28153 10.6704 3.36636C9.89206 2.39856 9.11903 1.53908 8.82294 1.31206C7.55158 0.337415 5.75231 -0.147339 4.09871 0.0394804ZM64.7873 0.158797C63.8954 0.417082 62.949 1.11669 62.4731 1.86937C61.9251 2.73642 61.9396 2.4155 61.9396 13.6551V24H65.9749H70.0102V13.5185C70.0102 3.20387 70.007 3.02832 69.8117 2.49219C69.4281 1.43941 68.3442 0.49044 67.1484 0.16042C66.5627 -0.00125572 65.3427 -0.00206727 64.7873 0.158797ZM81.8833 0.170695C80.7249 0.45935 79.522 1.33478 79.0186 2.25544C78.8104 2.6362 71.1771 23.7432 71.1771 23.9381C71.1771 23.9722 76.5372 24 83.0885 24C89.6398 24 95 23.9817 95 23.9594C95 23.9371 94.7575 23.1159 94.461 22.1345C94.1646 21.1531 93.7473 19.7621 93.5337 19.0434C93.3201 18.3247 93.0778 17.544 92.9953 17.3086L92.8451 16.8805H89.0169C86.5528 16.8805 85.0051 16.8444 84.6734 16.7792C83.1216 16.474 81.8994 15.276 81.6847 13.8497C81.4467 12.2677 82.3459 10.72 83.8938 10.0476L84.4498 9.80607L87.5614 9.76101C89.552 9.73217 90.6682 9.68351 90.6598 9.62583C90.6457 9.53013 90.1268 7.78486 89.181 4.65102C88.8638 3.60013 88.5037 2.54572 88.3808 2.30789C87.8935 1.36505 86.5197 0.370851 85.3627 0.123652C84.7214 -0.013421 82.5013 0.0165893 81.8833 0.170695Z" fill="white"/>
<path d="M62.4731 1.86937C62.949 1.11669 63.8954 0.417082 64.7873 0.158797C65.3427 -0.00206727 66.5627 -0.00125572 67.1484 0.16042C68.3442 0.49044 69.4281 1.43941 69.8117 2.49219C70.007 3.02832 70.0102 3.20387 70.0102 13.5185V24H65.9749H61.9396V13.6551C61.9396 2.4155 61.9251 2.73642 62.4731 1.86937Z" fill="white"/>
</svg>
