<svg viewBox="0 0 255 73" fill="none" xmlns="http://www.w3.org/2000/svg">
<mask id="path-1-outside-1_2366_3163" maskUnits="userSpaceOnUse" x="-0.193237" y="-0.270508" width="255" height="73">
<rect x="-0.193237" y="-0.270508" width="255" height="73"/>
<path d="M94.2554 9.48536C98.1176 9.48536 100.049 12.326 100.049 18.0072L100.049 58.387L100.047 58.3877C100.048 58.3921 100.048 58.3965 100.049 58.401V58.4406L100.053 58.4405C100.377 61.2134 101.236 63.4203 102.47 65.1169C104.002 67.2235 105.853 68.6917 108.023 69.5215C110.194 70.2875 112.109 70.6705 113.769 70.6705C115.428 70.6705 117.311 70.2875 119.418 69.5215C121.588 68.6917 123.471 67.2235 125.067 65.1169C126.663 63.0104 127.461 60.0421 127.461 56.2121V17.8157C127.461 15.2624 127.812 13.4112 128.514 12.2622C129.216 11.1131 130.046 10.379 131.004 10.0599C131.961 9.67687 132.823 9.48537 133.589 9.48537C137.483 9.48537 139.43 12.326 139.43 18.0072V66.7447C139.43 67.7661 139.813 68.6917 140.579 69.5215C141.409 70.2875 142.366 70.6705 143.452 70.6705C144.473 70.6705 145.335 70.2875 146.037 69.5215C146.803 68.7555 147.186 67.8618 147.186 66.8405V18.103C147.186 11.8472 145.398 7.34692 141.824 4.60205C139.27 2.68702 136.525 1.7295 133.589 1.7295C130.717 1.7295 127.972 2.71893 125.354 4.6978C121.652 7.37884 119.801 11.7515 119.801 17.8157V55.063C119.801 58.7654 118.62 61.1592 116.258 62.2444C115.364 62.6912 114.535 62.9147 113.769 62.9147C111.598 62.9147 109.939 61.9252 108.79 59.9464C108.136 58.936 107.786 57.4829 107.741 55.5871V18.103C107.741 11.8472 105.968 7.34691 102.423 4.60204C99.8903 2.68701 97.1678 1.72949 94.2554 1.72949C91.4063 1.72949 88.6838 2.71893 86.088 4.69779C82.4157 7.37883 80.5797 11.7515 80.5797 17.8157L80.5797 55.063C80.5797 58.7654 79.4084 61.1592 77.0658 62.2444C76.1794 62.6912 75.3563 62.9147 74.5965 62.9147C72.4438 62.9147 70.7977 61.9252 69.6581 59.9464C68.9616 58.8612 68.6134 57.2653 68.6134 55.1588L68.6134 17.8157C68.6134 11.6876 66.8406 7.28308 63.295 4.60204C60.6992 2.68701 57.945 1.7295 55.0326 1.7295C53.703 1.7295 51.9619 2.11251 49.8092 2.87852C47.6565 3.64453 45.6938 5.14463 43.921 7.37884C42.2115 9.5492 41.3568 12.8047 41.3568 17.1455L41.3568 55.0659L41.3521 55.063C41.3521 58.7654 40.1712 61.1592 37.8093 62.2444C36.9156 62.6912 36.0858 62.9147 35.3198 62.9147C33.1494 62.9147 31.4897 61.9252 30.3407 59.9464C29.6385 58.8612 29.2874 57.2653 29.2874 55.1588V17.8157C29.2874 11.6876 27.5001 7.28309 23.9253 4.60205C21.3081 2.68702 18.5313 1.7295 15.595 1.7295C14.2544 1.7295 12.499 2.11251 10.3286 2.87852C8.15827 3.64453 6.17941 5.14463 4.39205 7.37884C2.66853 9.5492 1.80676 12.8047 1.80676 17.1455V66.8405C1.80676 67.8618 2.18977 68.7555 2.95578 69.5215C3.72179 70.2875 4.61547 70.6705 5.63682 70.6705C6.722 70.6705 7.6476 70.2875 8.41361 69.5215C9.17962 68.6917 9.56263 67.7661 9.56263 66.7447V17.5285C9.56263 15.1028 9.94563 13.3154 10.7116 12.1664C11.4777 11.0174 12.3394 10.2833 13.2969 9.96412C14.2544 9.58112 15.0205 9.38961 15.595 9.38961C16.2971 9.38961 17.0951 9.58112 17.9888 9.96412C18.9463 10.2833 19.7761 11.0493 20.4783 12.2622C21.1805 13.4112 21.5316 15.2305 21.5316 17.72V56.3078C21.6592 60.074 22.4891 63.0104 24.0211 65.1169C25.5531 67.2235 27.4043 68.6917 29.5747 69.5215C31.745 70.2875 33.6601 70.6705 35.3198 70.6705C36.9794 70.6705 38.8626 70.2875 40.9691 69.5215C43.1395 68.6917 45.0226 67.2235 46.6184 65.1169C47.6972 63.6929 48.6981 61.977 49.0481 59.7655L49.0494 59.7654V17.5285C49.0494 15.1028 49.4293 13.3154 50.1891 12.1664C50.9488 11.0174 51.8036 10.2833 52.7533 9.96412C53.703 9.58111 54.4628 9.38961 55.0326 9.38961C55.729 9.38961 56.5204 9.58111 57.4068 9.96412C58.3565 10.2833 59.1796 11.0493 59.8761 12.2622C60.5725 13.4112 60.9208 15.2304 60.9208 17.72L60.9208 56.3078C61.0474 60.074 61.8705 63.0104 63.39 65.1169C64.9095 67.2235 66.7456 68.6917 68.8983 69.5215C71.051 70.2875 72.9504 70.6705 74.5965 70.6705C76.2427 70.6705 78.1104 70.2875 80.1998 69.5215C82.3524 68.6917 84.2202 67.2235 85.803 65.1169C87.3859 63.0104 88.1773 60.0421 88.1773 56.2121L88.1773 17.8157C88.1773 15.2624 88.5255 13.4112 89.222 12.2621C89.9184 11.1131 90.7415 10.379 91.6912 10.0599C92.6409 9.67686 93.4957 9.48536 94.2554 9.48536Z"/>
<path d="M163.039 69.5215C163.805 70.2875 164.73 70.6705 165.816 70.6705C166.901 70.6705 167.795 70.2875 168.497 69.5215C169.263 68.7555 169.646 67.8618 169.646 66.8405V5.55956C169.646 4.47438 169.263 3.5807 168.497 2.87852C167.795 2.11251 166.901 1.7295 165.816 1.7295C164.73 1.7295 163.805 2.11251 163.039 2.87852C162.273 3.5807 161.89 4.47438 161.89 5.55956V66.8405C161.89 67.8618 162.273 68.7555 163.039 69.5215Z"/>
<path d="M246.968 70.0003C247.67 70.4471 248.372 70.6705 249.074 70.6705C250.159 70.6705 251.085 70.2875 251.851 69.5215C252.617 68.6917 253 67.7661 253 66.7447C253 66.234 252.904 65.7553 252.713 65.3084L228.2 7.95334C227.371 6.16598 225.998 4.69779 224.083 3.54878C222.168 2.33593 220.285 1.7295 218.434 1.7295C216.455 1.7295 214.54 2.30401 212.689 3.45303C210.837 4.53821 209.465 6.03832 208.571 7.95334C192.166 46.3177 183.931 65.6595 183.867 65.9787C183.804 66.2979 183.772 66.5532 183.772 66.7447C183.772 67.8299 184.155 68.7555 184.921 69.5215C185.687 70.2875 186.612 70.6705 187.698 70.6705C188.4 70.6705 189.07 70.4471 189.708 70.0003C190.41 69.5534 190.921 68.9789 191.24 68.2767L215.657 11.1131C216.295 10.028 217.221 9.48537 218.434 9.48537C219.647 9.48537 220.54 10.028 221.115 11.1131L245.531 68.2767C245.851 68.9789 246.329 69.5534 246.968 70.0003Z"/>
</mask>
<path d="M94.2554 9.48536C98.1176 9.48536 100.049 12.326 100.049 18.0072L100.049 58.387L100.047 58.3877C100.048 58.3921 100.048 58.3965 100.049 58.401V58.4406L100.053 58.4405C100.377 61.2134 101.236 63.4203 102.47 65.1169C104.002 67.2235 105.853 68.6917 108.023 69.5215C110.194 70.2875 112.109 70.6705 113.769 70.6705C115.428 70.6705 117.311 70.2875 119.418 69.5215C121.588 68.6917 123.471 67.2235 125.067 65.1169C126.663 63.0104 127.461 60.0421 127.461 56.2121V17.8157C127.461 15.2624 127.812 13.4112 128.514 12.2622C129.216 11.1131 130.046 10.379 131.004 10.0599C131.961 9.67687 132.823 9.48537 133.589 9.48537C137.483 9.48537 139.43 12.326 139.43 18.0072V66.7447C139.43 67.7661 139.813 68.6917 140.579 69.5215C141.409 70.2875 142.366 70.6705 143.452 70.6705C144.473 70.6705 145.335 70.2875 146.037 69.5215C146.803 68.7555 147.186 67.8618 147.186 66.8405V18.103C147.186 11.8472 145.398 7.34692 141.824 4.60205C139.27 2.68702 136.525 1.7295 133.589 1.7295C130.717 1.7295 127.972 2.71893 125.354 4.6978C121.652 7.37884 119.801 11.7515 119.801 17.8157V55.063C119.801 58.7654 118.62 61.1592 116.258 62.2444C115.364 62.6912 114.535 62.9147 113.769 62.9147C111.598 62.9147 109.939 61.9252 108.79 59.9464C108.136 58.936 107.786 57.4829 107.741 55.5871V18.103C107.741 11.8472 105.968 7.34691 102.423 4.60204C99.8903 2.68701 97.1678 1.72949 94.2554 1.72949C91.4063 1.72949 88.6838 2.71893 86.088 4.69779C82.4157 7.37883 80.5797 11.7515 80.5797 17.8157L80.5797 55.063C80.5797 58.7654 79.4084 61.1592 77.0658 62.2444C76.1794 62.6912 75.3563 62.9147 74.5965 62.9147C72.4438 62.9147 70.7977 61.9252 69.6581 59.9464C68.9616 58.8612 68.6134 57.2653 68.6134 55.1588L68.6134 17.8157C68.6134 11.6876 66.8406 7.28308 63.295 4.60204C60.6992 2.68701 57.945 1.7295 55.0326 1.7295C53.703 1.7295 51.9619 2.11251 49.8092 2.87852C47.6565 3.64453 45.6938 5.14463 43.921 7.37884C42.2115 9.5492 41.3568 12.8047 41.3568 17.1455L41.3568 55.0659L41.3521 55.063C41.3521 58.7654 40.1712 61.1592 37.8093 62.2444C36.9156 62.6912 36.0858 62.9147 35.3198 62.9147C33.1494 62.9147 31.4897 61.9252 30.3407 59.9464C29.6385 58.8612 29.2874 57.2653 29.2874 55.1588V17.8157C29.2874 11.6876 27.5001 7.28309 23.9253 4.60205C21.3081 2.68702 18.5313 1.7295 15.595 1.7295C14.2544 1.7295 12.499 2.11251 10.3286 2.87852C8.15827 3.64453 6.17941 5.14463 4.39205 7.37884C2.66853 9.5492 1.80676 12.8047 1.80676 17.1455V66.8405C1.80676 67.8618 2.18977 68.7555 2.95578 69.5215C3.72179 70.2875 4.61547 70.6705 5.63682 70.6705C6.722 70.6705 7.6476 70.2875 8.41361 69.5215C9.17962 68.6917 9.56263 67.7661 9.56263 66.7447V17.5285C9.56263 15.1028 9.94563 13.3154 10.7116 12.1664C11.4777 11.0174 12.3394 10.2833 13.2969 9.96412C14.2544 9.58112 15.0205 9.38961 15.595 9.38961C16.2971 9.38961 17.0951 9.58112 17.9888 9.96412C18.9463 10.2833 19.7761 11.0493 20.4783 12.2622C21.1805 13.4112 21.5316 15.2305 21.5316 17.72V56.3078C21.6592 60.074 22.4891 63.0104 24.0211 65.1169C25.5531 67.2235 27.4043 68.6917 29.5747 69.5215C31.745 70.2875 33.6601 70.6705 35.3198 70.6705C36.9794 70.6705 38.8626 70.2875 40.9691 69.5215C43.1395 68.6917 45.0226 67.2235 46.6184 65.1169C47.6972 63.6929 48.6981 61.977 49.0481 59.7655L49.0494 59.7654V17.5285C49.0494 15.1028 49.4293 13.3154 50.1891 12.1664C50.9488 11.0174 51.8036 10.2833 52.7533 9.96412C53.703 9.58111 54.4628 9.38961 55.0326 9.38961C55.729 9.38961 56.5204 9.58111 57.4068 9.96412C58.3565 10.2833 59.1796 11.0493 59.8761 12.2622C60.5725 13.4112 60.9208 15.2304 60.9208 17.72L60.9208 56.3078C61.0474 60.074 61.8705 63.0104 63.39 65.1169C64.9095 67.2235 66.7456 68.6917 68.8983 69.5215C71.051 70.2875 72.9504 70.6705 74.5965 70.6705C76.2427 70.6705 78.1104 70.2875 80.1998 69.5215C82.3524 68.6917 84.2202 67.2235 85.803 65.1169C87.3859 63.0104 88.1773 60.0421 88.1773 56.2121L88.1773 17.8157C88.1773 15.2624 88.5255 13.4112 89.222 12.2621C89.9184 11.1131 90.7415 10.379 91.6912 10.0599C92.6409 9.67686 93.4957 9.48536 94.2554 9.48536Z" />
<path d="M163.039 69.5215C163.805 70.2875 164.73 70.6705 165.816 70.6705C166.901 70.6705 167.795 70.2875 168.497 69.5215C169.263 68.7555 169.646 67.8618 169.646 66.8405V5.55956C169.646 4.47438 169.263 3.5807 168.497 2.87852C167.795 2.11251 166.901 1.7295 165.816 1.7295C164.73 1.7295 163.805 2.11251 163.039 2.87852C162.273 3.5807 161.89 4.47438 161.89 5.55956V66.8405C161.89 67.8618 162.273 68.7555 163.039 69.5215Z" />
<path d="M246.968 70.0003C247.67 70.4471 248.372 70.6705 249.074 70.6705C250.159 70.6705 251.085 70.2875 251.851 69.5215C252.617 68.6917 253 67.7661 253 66.7447C253 66.234 252.904 65.7553 252.713 65.3084L228.2 7.95334C227.371 6.16598 225.998 4.69779 224.083 3.54878C222.168 2.33593 220.285 1.7295 218.434 1.7295C216.455 1.7295 214.54 2.30401 212.689 3.45303C210.837 4.53821 209.465 6.03832 208.571 7.95334C192.166 46.3177 183.931 65.6595 183.867 65.9787C183.804 66.2979 183.772 66.5532 183.772 66.7447C183.772 67.8299 184.155 68.7555 184.921 69.5215C185.687 70.2875 186.612 70.6705 187.698 70.6705C188.4 70.6705 189.07 70.4471 189.708 70.0003C190.41 69.5534 190.921 68.9789 191.24 68.2767L215.657 11.1131C216.295 10.028 217.221 9.48537 218.434 9.48537C219.647 9.48537 220.54 10.028 221.115 11.1131L245.531 68.2767C245.851 68.9789 246.329 69.5534 246.968 70.0003Z" />
<path d="M94.2554 9.48536C98.1176 9.48536 100.049 12.326 100.049 18.0072L100.049 58.387L100.047 58.3877C100.048 58.3921 100.048 58.3965 100.049 58.401V58.4406L100.053 58.4405C100.377 61.2134 101.236 63.4203 102.47 65.1169C104.002 67.2235 105.853 68.6917 108.023 69.5215C110.194 70.2875 112.109 70.6705 113.769 70.6705C115.428 70.6705 117.311 70.2875 119.418 69.5215C121.588 68.6917 123.471 67.2235 125.067 65.1169C126.663 63.0104 127.461 60.0421 127.461 56.2121V17.8157C127.461 15.2624 127.812 13.4112 128.514 12.2622C129.216 11.1131 130.046 10.379 131.004 10.0599C131.961 9.67687 132.823 9.48537 133.589 9.48537C137.483 9.48537 139.43 12.326 139.43 18.0072V66.7447C139.43 67.7661 139.813 68.6917 140.579 69.5215C141.409 70.2875 142.366 70.6705 143.452 70.6705C144.473 70.6705 145.335 70.2875 146.037 69.5215C146.803 68.7555 147.186 67.8618 147.186 66.8405V18.103C147.186 11.8472 145.398 7.34692 141.824 4.60205C139.27 2.68702 136.525 1.7295 133.589 1.7295C130.717 1.7295 127.972 2.71893 125.354 4.6978C121.652 7.37884 119.801 11.7515 119.801 17.8157V55.063C119.801 58.7654 118.62 61.1592 116.258 62.2444C115.364 62.6912 114.535 62.9147 113.769 62.9147C111.598 62.9147 109.939 61.9252 108.79 59.9464C108.136 58.936 107.786 57.4829 107.741 55.5871V18.103C107.741 11.8472 105.968 7.34691 102.423 4.60204C99.8903 2.68701 97.1678 1.72949 94.2554 1.72949C91.4063 1.72949 88.6838 2.71893 86.088 4.69779C82.4157 7.37883 80.5797 11.7515 80.5797 17.8157L80.5797 55.063C80.5797 58.7654 79.4084 61.1592 77.0658 62.2444C76.1794 62.6912 75.3563 62.9147 74.5965 62.9147C72.4438 62.9147 70.7977 61.9252 69.6581 59.9464C68.9616 58.8612 68.6134 57.2653 68.6134 55.1588L68.6134 17.8157C68.6134 11.6876 66.8406 7.28308 63.295 4.60204C60.6992 2.68701 57.945 1.7295 55.0326 1.7295C53.703 1.7295 51.9619 2.11251 49.8092 2.87852C47.6565 3.64453 45.6938 5.14463 43.921 7.37884C42.2115 9.5492 41.3568 12.8047 41.3568 17.1455L41.3568 55.0659L41.3521 55.063C41.3521 58.7654 40.1712 61.1592 37.8093 62.2444C36.9156 62.6912 36.0858 62.9147 35.3198 62.9147C33.1494 62.9147 31.4897 61.9252 30.3407 59.9464C29.6385 58.8612 29.2874 57.2653 29.2874 55.1588V17.8157C29.2874 11.6876 27.5001 7.28309 23.9253 4.60205C21.3081 2.68702 18.5313 1.7295 15.595 1.7295C14.2544 1.7295 12.499 2.11251 10.3286 2.87852C8.15827 3.64453 6.17941 5.14463 4.39205 7.37884C2.66853 9.5492 1.80676 12.8047 1.80676 17.1455V66.8405C1.80676 67.8618 2.18977 68.7555 2.95578 69.5215C3.72179 70.2875 4.61547 70.6705 5.63682 70.6705C6.722 70.6705 7.6476 70.2875 8.41361 69.5215C9.17962 68.6917 9.56263 67.7661 9.56263 66.7447V17.5285C9.56263 15.1028 9.94563 13.3154 10.7116 12.1664C11.4777 11.0174 12.3394 10.2833 13.2969 9.96412C14.2544 9.58112 15.0205 9.38961 15.595 9.38961C16.2971 9.38961 17.0951 9.58112 17.9888 9.96412C18.9463 10.2833 19.7761 11.0493 20.4783 12.2622C21.1805 13.4112 21.5316 15.2305 21.5316 17.72V56.3078C21.6592 60.074 22.4891 63.0104 24.0211 65.1169C25.5531 67.2235 27.4043 68.6917 29.5747 69.5215C31.745 70.2875 33.6601 70.6705 35.3198 70.6705C36.9794 70.6705 38.8626 70.2875 40.9691 69.5215C43.1395 68.6917 45.0226 67.2235 46.6184 65.1169C47.6972 63.6929 48.6981 61.977 49.0481 59.7655L49.0494 59.7654V17.5285C49.0494 15.1028 49.4293 13.3154 50.1891 12.1664C50.9488 11.0174 51.8036 10.2833 52.7533 9.96412C53.703 9.58111 54.4628 9.38961 55.0326 9.38961C55.729 9.38961 56.5204 9.58111 57.4068 9.96412C58.3565 10.2833 59.1796 11.0493 59.8761 12.2622C60.5725 13.4112 60.9208 15.2304 60.9208 17.72L60.9208 56.3078C61.0474 60.074 61.8705 63.0104 63.39 65.1169C64.9095 67.2235 66.7456 68.6917 68.8983 69.5215C71.051 70.2875 72.9504 70.6705 74.5965 70.6705C76.2427 70.6705 78.1104 70.2875 80.1998 69.5215C82.3524 68.6917 84.2202 67.2235 85.803 65.1169C87.3859 63.0104 88.1773 60.0421 88.1773 56.2121L88.1773 17.8157C88.1773 15.2624 88.5255 13.4112 89.222 12.2621C89.9184 11.1131 90.7415 10.379 91.6912 10.0599C92.6409 9.67686 93.4957 9.48536 94.2554 9.48536Z" stroke-width="3.19171" mask="url(#path-1-outside-1_2366_3163)"/>
<path d="M163.039 69.5215C163.805 70.2875 164.73 70.6705 165.816 70.6705C166.901 70.6705 167.795 70.2875 168.497 69.5215C169.263 68.7555 169.646 67.8618 169.646 66.8405V5.55956C169.646 4.47438 169.263 3.5807 168.497 2.87852C167.795 2.11251 166.901 1.7295 165.816 1.7295C164.73 1.7295 163.805 2.11251 163.039 2.87852C162.273 3.5807 161.89 4.47438 161.89 5.55956V66.8405C161.89 67.8618 162.273 68.7555 163.039 69.5215Z" stroke-width="3.19171" mask="url(#path-1-outside-1_2366_3163)"/>
<path d="M246.968 70.0003C247.67 70.4471 248.372 70.6705 249.074 70.6705C250.159 70.6705 251.085 70.2875 251.851 69.5215C252.617 68.6917 253 67.7661 253 66.7447C253 66.234 252.904 65.7553 252.713 65.3084L228.2 7.95334C227.371 6.16598 225.998 4.69779 224.083 3.54878C222.168 2.33593 220.285 1.7295 218.434 1.7295C216.455 1.7295 214.54 2.30401 212.689 3.45303C210.837 4.53821 209.465 6.03832 208.571 7.95334C192.166 46.3177 183.931 65.6595 183.867 65.9787C183.804 66.2979 183.772 66.5532 183.772 66.7447C183.772 67.8299 184.155 68.7555 184.921 69.5215C185.687 70.2875 186.612 70.6705 187.698 70.6705C188.4 70.6705 189.07 70.4471 189.708 70.0003C190.41 69.5534 190.921 68.9789 191.24 68.2767L215.657 11.1131C216.295 10.028 217.221 9.48537 218.434 9.48537C219.647 9.48537 220.54 10.028 221.115 11.1131L245.531 68.2767C245.851 68.9789 246.329 69.5534 246.968 70.0003Z" stroke-width="3.19171" mask="url(#path-1-outside-1_2366_3163)"/>
</svg>
