<svg width="140" height="28" viewBox="0 0 140 28" fill="none" xmlns="http://www.w3.org/2000/svg">
<path d="M18.6461 27.3918L11.165 5.08894L4.61912 24.1188H13.8535V27.2047H-0.00976562L9.41166 1.09126H13.2457L22.4801 27.2047H18.6461V27.3918ZM34.1926 11.8219C33.7952 11.8219 33.4211 11.6348 33.0237 11.6348C29.891 11.7985 27.483 14.4636 27.6467 17.5963C27.6467 17.6664 27.6467 17.7366 27.6701 17.8067V27.4853H24.3971V9.15675H27.6701V12.6167C28.5117 10.2555 30.756 8.71257 33.2341 8.73594C33.5614 8.68919 33.912 8.75932 34.1926 8.92297V11.8219ZM42.8425 27.7658C37.4655 27.7658 34.1926 24.1188 34.1926 18.0872C34.1926 12.0557 37.8396 8.40864 42.8425 8.40864C46.2324 8.22162 49.3651 10.2322 50.5807 13.4116L47.8922 14.7675C47.261 12.5466 45.2037 11.027 42.8893 11.1205C39.6163 11.1205 37.5123 13.622 37.5123 18.0171C37.5123 22.4356 39.8034 24.9137 42.8893 24.9137C45.1803 25.0072 47.3078 23.7214 48.2663 21.6407L50.7677 22.9967C49.3651 26.0826 46.209 27.9762 42.8425 27.7658ZM68.0209 27.3918H64.7479V16.8248C64.7479 12.7804 63.2283 11.6348 60.5398 11.6348C57.828 11.6816 55.6772 13.9025 55.7239 16.591C55.7239 16.7313 55.7239 16.8716 55.7473 17.0118V27.5788H52.4744V1.25491H55.7473V11.8219C56.9864 9.7412 59.3008 8.54892 61.7088 8.73594C63.7193 8.54892 65.6831 9.41391 66.8987 11.027C67.7871 12.5466 68.1845 14.2766 68.0676 16.0299L68.0209 27.3918ZM70.7094 9.13337H73.9823V27.3918H70.7094V9.13337ZM72.4394 5.08894C71.2704 5.08894 70.3353 4.13043 70.3353 2.9849C70.3353 1.81599 71.2704 0.880859 72.4394 0.880859C73.6083 0.880859 74.5434 1.81599 74.5434 2.9849C74.6369 4.0603 73.8654 4.99543 72.79 5.08894C72.6731 5.08894 72.5563 5.08894 72.4394 5.08894ZM87.4248 11.6348H83.3804V27.1814H80.1074V11.6348H76.6708V8.94635H80.1074V3.17192H83.3804V8.94635H87.4248V11.6348ZM89.9263 9.13337H93.1992V27.3918H89.9263V9.13337ZM91.6329 0.880859C92.8018 0.880859 93.7369 1.81599 93.7369 2.9849C93.7369 4.15381 92.8018 5.08894 91.6329 5.08894C90.464 5.08894 89.5288 4.15381 89.5288 2.9849C89.5288 1.81599 90.4874 0.880859 91.6329 0.880859ZM110.078 27.3918H95.6773V24.8903L106.057 11.8219H96.2384V9.13337H110.078V11.6348L99.5113 24.8903H110.078V27.3918ZM127.963 18.5314C127.963 13.1544 125.274 8.85284 119.71 8.85284C114.707 8.85284 111.06 12.7336 111.06 18.2743C111.06 24.2357 114.52 27.9528 119.71 27.9528C122.936 28.0464 125.975 26.4333 127.729 23.7448L125.438 22.0148C124.339 23.9552 122.282 25.1241 120.061 25.1007C116.951 25.2176 114.333 22.7863 114.24 19.677C114.24 19.4432 114.24 19.186 114.263 18.9522H127.799L127.963 18.5314ZM114.52 16.3572C114.637 13.4583 117.068 11.1673 119.967 11.2374C122.656 11.2374 124.386 13.1778 124.76 16.4274L114.52 16.3572ZM140.26 11.8219C139.862 11.8219 139.488 11.6348 139.091 11.6348C135.958 11.7751 133.55 14.4402 133.69 17.5729C133.69 17.643 133.69 17.7132 133.714 17.7833V27.4619H130.464V9.13337H133.737V12.5934C134.579 10.2322 136.823 8.68919 139.301 8.71256C139.628 8.66581 139.979 8.73594 140.26 8.89959V11.8219Z" fill="black"/>
</svg>
