<svg width="140" height="22" viewBox="0 0 140 22" fill="none" xmlns="http://www.w3.org/2000/svg">
<path d="M129.144 21.1568H134.13V15.3523C134.13 12.6243 135.456 10.8538 138.223 10.8538C138.569 10.8538 139.059 10.8829 139.232 10.941V6.00699C139.059 5.97819 138.858 5.94888 138.656 5.94888C136.436 5.94888 134.563 7.63194 133.929 9.6639H133.871C133.871 9.6639 133.929 9.22861 133.929 8.73495V6.20985H129.144V21.1568ZM114.847 13.7271C114.847 11.4632 116.404 10.0408 118.22 10.0408C120.036 10.0408 121.592 11.4632 121.592 13.7271C121.592 15.9621 120.036 17.3259 118.22 17.3259C116.404 17.3259 114.847 15.9621 114.847 13.7271ZM109.803 13.7271C109.803 18.3998 113.55 21.5055 118.22 21.5055C122.889 21.5055 126.636 18.3998 126.636 13.7271C126.636 9.02524 122.889 5.86172 118.191 5.86172C113.55 5.86172 109.803 9.02524 109.803 13.7271ZM102.309 21.1568H107.296V6.20985H102.309V21.1568ZM102.367 4.32341H107.238V0.405273H102.367V4.32341ZM90.0303 21.1568H95.0166V15.3523C95.0166 12.6243 96.3424 10.8538 99.1096 10.8538C99.4555 10.8538 99.9458 10.8829 100.118 10.941V6.00699C99.9455 5.97819 99.7441 5.94888 99.5424 5.94888C97.3226 5.94888 95.4489 7.63194 94.8149 9.6639H94.7572C94.7572 9.6639 94.8149 9.22861 94.8149 8.73495V6.20985H90.0303V21.1568ZM78.0684 11.7823C78.3278 10.5923 79.0196 9.54743 80.4607 9.54743C81.729 9.54743 82.5073 10.563 82.5073 11.7823H78.0684ZM72.8512 13.6692C72.8512 17.6455 75.7049 21.5055 81.0084 21.5055C83.2856 21.5055 85.7356 20.7216 87.3497 19.3288L85.5053 15.8169C84.2947 16.6296 82.8822 17.3261 81.4119 17.3261C79.8267 17.3261 78.3278 16.4843 77.953 14.656H87.3213C87.3788 14.1335 87.4365 13.6108 87.4365 13.0886C87.4365 8.93833 84.9576 5.86197 80.5764 5.86197C75.7915 5.86172 72.8512 9.28621 72.8512 13.6692ZM62.7056 15.6428C62.7056 20.6637 67.2885 21.3024 69.6523 21.3024C70.2286 21.3024 70.6323 21.244 71.0071 21.2152V16.8618C70.6897 16.8906 70.5169 16.8906 70.3442 16.8906C69.3931 16.8906 67.6922 16.6584 67.6922 14.9751V10.3892H70.8054V6.47108H67.6922V2.17575H62.8499V6.47108H60.8033V10.3892H62.7059V15.6428H62.7056ZM43.7971 21.1568H48.7837V14.3945C48.7837 12.2759 49.7926 10.4183 52.0121 10.4183C53.1072 10.4183 53.6549 10.9983 53.6549 12.3919V21.1568H58.6416V11.4632C58.6416 7.25476 56.3067 5.86172 53.3092 5.86172C50.686 5.86172 49.2737 7.28381 48.582 8.44493H48.5243C48.5243 8.44493 48.582 8.00938 48.582 7.51573V6.20985H43.7971V21.1568ZM35.467 21.1568H40.4536V6.20985H35.467V21.1568ZM35.525 4.32341H40.3962V0.405273H35.525V4.32341ZM27.3675 21.1568H32.0947V16.3974H27.3675V21.1568ZM13.3307 13.6692C13.3307 11.3763 14.6853 10.0992 16.2419 10.0992C18.2019 10.0992 19.1531 11.8694 19.1531 13.6692C19.1531 16.2522 17.7408 17.3552 16.2419 17.3552C14.5122 17.3549 13.3307 15.9038 13.3307 13.6692ZM8.31523 13.6692C8.31523 18.3129 10.967 21.5055 15.0024 21.5055C16.7607 21.5055 18.3748 20.7509 19.2971 19.3288H19.3548C19.3548 19.3288 19.3259 19.706 19.3259 20.1706V21.1571H23.9954V0.405273H19.009V6.38417C19.009 6.76136 19.0379 7.05164 19.0379 7.05164H18.9802C18.0002 6.06484 16.4147 5.86172 15.0887 5.86172C11.1398 5.86172 8.31523 8.93808 8.31523 13.6692ZM0.763672 21.1568H5.75029V6.20985H0.763672V21.1568ZM0.821379 4.32341H5.69258V0.405273H0.821379V4.32341Z" fill="black"/>
</svg>
