<?xml version="1.0" standalone="no"?>
<!DOCTYPE svg PUBLIC "-//W3C//DTD SVG 20010904//EN"
 "http://www.w3.org/TR/2001/REC-SVG-20010904/DTD/svg10.dtd">
<svg version="1.0" xmlns="http://www.w3.org/2000/svg"
 width="2560.000000pt" height="2560.000000pt" viewBox="0 0 2560.000000 2560.000000"
 preserveAspectRatio="xMidYMid meet">
<metadata>
Created by potrace 1.14, written by Peter Selinger 2001-2017
</metadata>
<g transform="translate(0.000000,2560.000000) scale(0.100000,-0.100000)"
fill="#000000" stroke="none">
<path d="M1470 16389 c-97 -12 -137 -19 -232 -45 -51 -13 -100 -26 -108 -29
-97 -26 -248 -89 -353 -148 -108 -61 -340 -264 -417 -366 -14 -18 -35 -44 -47
-58 -12 -14 -25 -34 -28 -44 -4 -11 -11 -19 -16 -19 -5 0 -9 -5 -9 -10 0 -6
-10 -27 -23 -48 -13 -20 -29 -53 -37 -72 -8 -19 -17 -37 -20 -40 -3 -3 -20
-50 -38 -105 -43 -136 -67 -240 -78 -335 -3 -19 -7 -53 -10 -75 -4 -22 -8
-1236 -9 -2698 -3 -2795 -4 -2709 38 -2797 44 -95 132 -197 212 -249 22 -14
42 -26 45 -27 3 0 23 -9 45 -19 22 -9 45 -18 50 -20 6 -1 21 -5 35 -9 62 -17
159 -14 265 8 53 11 149 64 206 113 75 65 157 189 173 263 3 14 10 44 14 67 5
23 9 1179 9 2570 0 1390 4 2563 7 2605 8 92 13 119 26 153 5 14 9 29 8 33 -1
4 6 24 15 46 9 21 17 41 17 43 0 10 64 88 98 120 40 38 76 58 157 85 108 36
189 30 309 -25 53 -24 136 -100 136 -124 0 -7 4 -13 8 -13 7 0 55 -99 58 -120
0 -3 4 -12 7 -20 3 -8 9 -35 12 -60 3 -25 9 -61 12 -80 3 -19 7 -953 8 -2075
1 -1122 5 -2074 9 -2115 11 -128 14 -153 25 -220 14 -87 16 -95 35 -165 9 -33
18 -67 21 -76 12 -53 81 -229 94 -239 3 -3 19 -30 35 -60 61 -116 218 -299
341 -397 112 -89 249 -166 371 -208 44 -15 86 -29 94 -32 8 -3 20 -7 25 -8 6
-2 30 -8 55 -15 25 -7 52 -14 60 -15 8 -2 35 -8 60 -13 115 -26 230 -38 345
-36 84 2 170 9 170 14 0 1 14 3 30 5 17 2 45 6 62 9 51 7 265 67 295 83 15 7
30 13 33 13 24 1 245 110 245 122 0 4 7 8 15 8 8 0 15 5 15 10 0 6 5 10 11 10
29 0 236 188 302 274 12 16 29 36 37 45 8 10 31 39 49 67 19 27 37 51 40 54 4
3 12 15 19 28 6 12 18 32 25 45 6 12 14 24 17 27 11 11 70 141 70 155 0 8 5
15 10 15 6 0 9 3 8 8 -5 21 25 95 40 99 16 4 18 140 18 2231 0 1225 3 2265 7
2312 9 102 30 195 58 257 24 54 28 59 95 128 94 97 294 150 394 103 19 -9 52
-22 73 -29 89 -31 192 -182 217 -319 6 -36 14 -78 17 -95 2 -16 6 -952 7
-2080 2 -1127 6 -2086 10 -2130 10 -118 15 -160 21 -194 31 -174 81 -343 138
-461 41 -85 118 -211 147 -240 8 -8 31 -35 51 -60 49 -60 83 -94 159 -161 74
-64 197 -149 217 -149 7 0 13 -4 13 -10 0 -5 4 -10 10 -10 5 0 37 -13 72 -29
35 -16 77 -33 93 -39 17 -6 39 -13 50 -18 11 -4 25 -8 30 -9 6 -2 42 -12 80
-23 68 -19 187 -44 290 -60 90 -14 324 -4 420 18 222 50 322 83 490 161 11 5
34 18 50 29 17 11 38 23 48 26 9 4 17 9 17 13 0 4 14 15 32 25 81 49 235 196
323 311 25 33 51 67 58 75 7 8 13 17 13 20 0 3 12 23 25 45 14 22 32 56 41 75
20 44 44 103 47 112 0 5 8 25 16 45 12 32 33 103 41 138 8 41 27 146 40 225 5
32 18 2136 14 2395 0 11 0 38 1 60 1 47 1 42 -3 123 -2 35 -1 65 2 67 3 2 3
31 0 64 -3 33 -3 68 1 78 3 10 3 27 -1 38 -4 11 -4 34 1 52 4 18 4 33 0 33 -3
0 -5 24 -4 52 3 54 3 63 4 133 1 47 1 42 -3 123 -2 35 -1 65 2 67 3 2 3 31 0
64 -3 33 -3 68 1 78 3 10 3 27 -1 38 -4 11 -4 34 1 52 4 18 4 33 0 33 -3 0 -5
24 -4 52 2 29 5 213 7 408 3 195 7 366 10 380 3 14 8 40 11 58 17 89 87 229
129 254 6 3 22 15 35 27 12 11 39 25 60 32 20 6 42 16 49 22 6 5 12 7 12 4 0
-3 19 1 43 8 60 18 191 12 254 -13 28 -11 72 -39 97 -62 43 -40 106 -148 106
-181 0 -8 4 -19 9 -24 7 -9 13 -35 38 -160 12 -57 14 -4175 3 -4175 -7 0 -8
-14 -4 -37 3 -21 8 -83 11 -138 3 -55 10 -103 16 -107 6 -3 12 -12 13 -20 34
-165 120 -390 189 -492 14 -20 25 -39 25 -41 0 -10 109 -147 161 -202 161
-171 386 -314 584 -371 22 -6 69 -20 105 -30 53 -16 112 -30 140 -32 3 -1 23
-5 45 -10 125 -29 357 -31 498 -5 45 8 71 14 97 20 14 3 36 8 50 11 14 3 68
18 120 35 52 16 98 28 101 27 4 -2 16 6 28 16 12 11 21 16 21 12 0 -19 255
128 330 190 33 27 216 211 239 239 26 33 135 197 137 205 0 3 15 35 32 73 18
37 46 113 62 169 29 97 33 115 45 191 3 17 7 43 10 57 14 78 18 154 19 432 0
170 4 308 8 308 4 0 5 7 1 15 -9 25 -10 178 -1 198 5 9 5 17 1 17 -4 0 -7 53
-5 117 1 65 2 132 1 148 -5 111 -3 465 3 465 4 0 5 7 1 15 -9 25 -10 178 -1
198 5 9 5 17 1 17 -4 0 -7 53 -5 117 1 65 2 123 2 128 -1 126 -2 613 0 620 1
6 1 15 0 20 -3 14 -3 608 0 620 1 6 1 15 0 20 -5 27 -2 614 4 623 3 6 2 13 -4
17 -7 4 -7 12 0 24 5 10 7 21 3 24 -10 11 -2 218 12 312 4 28 8 56 8 63 0 6 3
12 6 12 4 0 8 11 9 25 3 44 54 138 101 189 75 80 208 126 349 121 46 -2 89 -8
95 -14 6 -6 20 -11 31 -11 12 0 40 -15 63 -33 137 -106 193 -278 198 -608 1
-92 6 -172 9 -178 4 -6 4 -11 -1 -11 -10 0 -9 -1942 1 -1958 4 -7 4 -12 -1
-12 -10 0 -9 -612 1 -628 4 -7 4 -12 -1 -12 -10 0 -8 -2128 2 -2190 4 -25 8
-49 9 -55 1 -5 10 -32 21 -60 39 -104 118 -204 206 -261 24 -16 46 -31 49 -34
3 -3 21 -11 40 -18 169 -64 314 -62 460 7 39 18 59 32 115 79 38 32 108 124
133 175 61 125 57 -61 56 2712 0 1403 -3 2586 -7 2630 -3 44 -8 100 -11 125
-14 119 -18 145 -22 151 -2 4 -6 22 -8 40 -3 19 -14 68 -25 109 -12 41 -23 82
-25 91 -21 82 -135 342 -157 359 -4 3 -15 19 -25 36 -48 79 -94 136 -188 230
-93 92 -249 214 -275 214 -6 0 -11 3 -11 8 0 4 -24 18 -53 32 -28 13 -60 31
-69 39 -10 8 -18 11 -18 6 0 -4 -7 -2 -15 5 -33 27 -261 100 -365 116 -159 24
-328 24 -495 -1 -87 -13 -267 -72 -356 -117 -31 -15 -61 -28 -67 -28 -5 0 -15
-7 -22 -15 -7 -8 -21 -15 -30 -15 -10 0 -20 -3 -22 -7 -2 -7 -78 -60 -166
-118 -48 -31 -130 -104 -200 -175 -61 -62 -162 -193 -162 -209 0 -6 -3 -11 -7
-11 -5 0 -13 -10 -19 -23 -6 -12 -29 -58 -51 -102 -36 -70 -70 -159 -112 -288
-15 -47 -24 -86 -25 -114 -1 -13 -3 -23 -6 -23 -3 0 -6 -8 -7 -17 -1 -10 -4
-31 -8 -48 -3 -16 -8 -52 -11 -80 -3 -27 -8 -61 -11 -75 -4 -14 -8 -565 -10
-1225 -6 -2287 -9 -2950 -17 -2995 -20 -124 -75 -239 -144 -300 -65 -59 -82
-72 -82 -66 0 3 -15 -3 -34 -14 -61 -34 -131 -49 -206 -45 -39 2 -76 8 -83 12
-7 4 -21 9 -32 11 -28 4 -94 49 -137 94 -70 73 -121 176 -145 296 -3 15 -7
918 -9 2007 -2 1803 -6 2170 -20 2237 -3 13 -7 43 -9 68 -2 25 -7 56 -10 70
-3 14 -8 41 -11 60 -21 134 -93 350 -163 489 -58 114 -156 246 -256 346 -107
106 -140 135 -154 135 -5 0 -11 4 -13 9 -5 14 -138 97 -234 144 -49 25 -132
59 -184 77 -92 31 -116 38 -170 45 -14 2 -25 4 -25 5 0 3 -42 10 -105 16 -121
13 -291 8 -405 -11 -107 -19 -334 -95 -367 -122 -9 -8 -22 -15 -30 -17 -7 -1
-40 -17 -73 -36 -33 -19 -64 -37 -70 -39 -5 -2 -14 -8 -20 -13 -5 -5 -41 -31
-80 -59 -140 -100 -295 -260 -377 -390 -30 -47 -108 -191 -108 -199 0 -4 -9
-27 -19 -51 -11 -24 -20 -48 -21 -54 -1 -5 -8 -26 -16 -45 -15 -39 -42 -134
-49 -171 -3 -13 -7 -35 -10 -49 -9 -43 -14 -73 -20 -112 -3 -21 -7 -56 -10
-78 -14 -101 -16 -338 -19 -2215 -2 -1100 -6 -2012 -9 -2027 -3 -14 -8 -35
-12 -47 -3 -11 -9 -33 -11 -48 -3 -15 -9 -32 -13 -38 -5 -5 -11 -22 -15 -37
-10 -44 -94 -158 -115 -158 -6 0 -11 -4 -11 -9 0 -14 -138 -78 -195 -91 -47
-11 -157 -5 -180 8 -5 4 -16 7 -23 8 -43 7 -115 66 -184 152 -58 72 -94 188
-104 331 -3 53 -7 996 -9 2096 -1 1100 -5 2018 -8 2040 -3 22 -8 56 -11 75 -3
19 -8 53 -10 75 -2 22 -6 47 -10 55 -3 8 -7 32 -9 52 -2 21 -7 41 -10 45 -4 3
-7 14 -7 22 0 22 -62 214 -89 276 -12 28 -29 67 -38 88 -9 20 -20 37 -24 37
-4 0 -13 16 -19 35 -6 19 -15 35 -19 35 -4 0 -13 11 -19 25 -23 50 -97 142
-192 235 -186 185 -437 323 -725 399 -142 38 -407 46 -540 17 -131 -28 -342
-91 -414 -122 -195 -85 -325 -177 -485 -339 -76 -77 -206 -242 -206 -261 0 -7
-3 -14 -7 -16 -7 -2 -64 -111 -68 -128 -1 -3 -7 -18 -14 -35 -15 -36 -50 -144
-55 -170 -3 -11 -10 -42 -16 -70 -17 -73 -16 -70 -36 -205 -14 -95 -15 -209
-19 -2205 -4 -1788 -6 -2130 -15 -2130 -1 0 -3 -13 -6 -30 -9 -62 -15 -80 -57
-165 -53 -108 -154 -188 -287 -228 -33 -9 -168 -5 -205 8 -22 7 -42 13 -45 13
-9 -1 -64 40 -103 76 -89 83 -144 201 -163 351 -4 30 -8 962 -9 2070 -2 1108
-5 2042 -8 2075 -4 33 -9 80 -13 105 -3 25 -7 56 -9 70 -7 50 -15 96 -21 120
-3 14 -10 43 -15 65 -5 22 -11 45 -13 50 -1 6 -6 24 -11 40 -15 58 -78 220
-86 223 -5 2 -9 9 -9 15 0 15 -43 101 -52 105 -5 2 -8 8 -8 13 0 10 -63 110
-82 130 -7 8 -25 30 -40 49 -67 89 -190 199 -313 281 -83 55 -283 159 -307
159 -8 0 -18 4 -24 8 -13 12 -137 50 -221 67 -126 26 -306 37 -413 24z"/>
<path d="M16588 16395 c-2 -2 -21 -5 -44 -8 -50 -7 -154 -45 -172 -64 -7 -7
-19 -13 -26 -13 -25 0 -161 -144 -193 -205 -68 -130 -63 154 -60 -3340 1
-1738 6 -3173 10 -3189 35 -131 152 -278 272 -343 150 -81 348 -88 502 -17 39
18 120 78 151 113 73 80 111 146 144 246 11 33 13 618 13 3210 l0 3170 -27 74
c-15 40 -39 91 -54 112 -27 40 -102 119 -143 152 -28 22 -133 76 -161 83 -11
2 -30 6 -42 9 -25 6 -166 14 -170 10z"/>
<path d="M21848 16395 c-2 -1 -32 -5 -68 -9 -36 -3 -85 -11 -110 -17 -25 -6
-49 -12 -55 -13 -23 -4 -160 -51 -165 -56 -3 -3 -30 -16 -60 -30 -66 -29 -196
-108 -265 -161 -93 -71 -265 -265 -265 -299 0 -5 -4 -10 -10 -10 -5 0 -10 -6
-10 -14 0 -7 -7 -19 -15 -26 -8 -6 -14 -15 -13 -18 1 -4 -5 -21 -14 -37 -9
-17 -33 -71 -53 -120 -21 -50 -52 -123 -71 -163 -19 -40 -34 -78 -34 -85 0 -7
-4 -17 -8 -22 -5 -6 -24 -46 -42 -90 -18 -44 -44 -105 -58 -135 -13 -30 -40
-93 -59 -140 -20 -47 -44 -105 -55 -130 -11 -25 -24 -54 -29 -65 -14 -33 -31
-80 -29 -84 1 -2 -2 -7 -7 -10 -4 -3 -19 -33 -32 -66 -23 -57 -43 -103 -90
-207 -11 -26 -21 -50 -21 -53 0 -2 -11 -28 -24 -57 -13 -29 -43 -98 -66 -153
-23 -55 -48 -113 -55 -130 -7 -16 -39 -91 -71 -165 -31 -74 -65 -153 -75 -175
-9 -22 -36 -85 -59 -140 -23 -55 -50 -118 -60 -140 -10 -22 -30 -69 -45 -105
-15 -36 -38 -89 -51 -118 -13 -29 -24 -55 -24 -57 0 -3 -16 -39 -35 -81 -19
-41 -35 -77 -35 -80 0 -2 -21 -53 -46 -112 -57 -133 -67 -156 -69 -162 -1 -3
-10 -23 -19 -45 -10 -22 -61 -141 -113 -265 -53 -124 -109 -253 -124 -288 -16
-34 -29 -65 -29 -67 0 -2 -11 -29 -25 -59 -14 -30 -25 -58 -25 -61 0 -4 -12
-30 -26 -59 -14 -28 -25 -51 -24 -51 3 0 -20 -56 -45 -111 -14 -30 -25 -57
-25 -60 0 -3 -10 -26 -22 -52 -12 -26 -23 -49 -23 -52 -1 -3 -7 -16 -12 -30
-19 -42 -124 -291 -150 -355 -14 -33 -30 -66 -35 -72 -6 -7 -7 -13 -4 -13 4 0
0 -12 -8 -27 -8 -16 -27 -57 -42 -93 -14 -36 -33 -81 -41 -100 -8 -19 -21 -48
-28 -65 -25 -54 -66 -154 -70 -165 -1 -3 -9 -22 -18 -44 -9 -21 -17 -40 -17
-42 0 -2 -11 -27 -24 -56 -14 -29 -39 -87 -56 -128 -38 -90 -58 -138 -70 -165
-5 -11 -21 -49 -35 -85 -23 -58 -33 -81 -65 -155 -32 -73 -42 -189 -26 -284
18 -108 82 -219 174 -302 60 -54 163 -114 212 -123 14 -2 36 -7 50 -10 92 -24
236 -5 333 45 34 17 64 34 67 38 3 3 25 21 50 40 87 66 134 136 206 311 20 47
44 103 54 125 10 22 44 101 75 175 66 157 65 155 104 243 17 38 31 71 31 73 0
3 8 24 19 47 10 23 40 92 65 152 26 61 52 121 58 135 6 14 12 27 12 30 1 3 10
23 21 45 10 22 20 45 21 51 1 6 14 37 29 70 14 32 30 68 35 79 5 11 108 254
230 540 122 286 228 534 235 550 7 17 39 91 70 165 32 74 63 149 70 165 8 17
23 53 36 80 12 28 21 51 20 53 -1 1 10 24 24 52 14 27 25 56 25 65 0 8 5 15
12 15 6 0 9 2 6 5 -3 3 15 52 39 108 66 152 66 151 65 160 -1 4 2 7 6 7 5 0 9
6 9 13 0 6 10 35 23 62 12 28 29 66 37 85 8 19 20 49 27 65 7 17 18 41 24 55
5 14 24 56 41 93 17 37 31 70 31 73 0 3 8 24 19 47 28 65 34 81 33 90 -1 4 2
7 8 7 5 0 10 7 10 15 0 8 4 23 10 33 5 9 16 33 24 52 58 138 170 400 181 425
7 17 27 64 45 105 17 41 42 99 56 128 13 29 24 55 24 58 0 3 8 24 19 47 10 23
31 71 46 107 15 36 36 85 47 109 11 24 28 64 38 90 16 42 44 107 87 201 9 19
16 41 16 48 0 6 4 12 9 12 4 0 8 9 8 20 0 11 4 20 8 20 5 0 9 6 9 13 0 11 9
31 61 147 9 19 16 37 15 40 0 3 20 48 46 100 54 111 78 132 153 135 54 2 81
-7 108 -37 9 -9 85 -178 169 -375 84 -197 161 -376 171 -398 10 -22 30 -69 44
-105 15 -36 33 -78 41 -95 7 -16 47 -111 89 -210 42 -99 83 -192 92 -207 8
-15 15 -31 15 -35 1 -5 9 -26 19 -48 10 -22 41 -96 70 -165 28 -69 60 -143 70
-165 10 -22 41 -96 70 -165 29 -69 65 -153 81 -188 16 -35 29 -65 29 -68 0 -3
8 -24 19 -47 10 -23 37 -85 59 -137 98 -231 175 -408 193 -447 10 -24 19 -45
19 -48 0 -2 11 -29 25 -59 14 -30 25 -57 25 -60 0 -2 13 -33 30 -68 32 -70 53
-120 54 -129 1 -5 27 -66 67 -154 9 -22 36 -85 59 -140 23 -55 53 -124 66
-153 13 -29 24 -59 24 -66 0 -7 7 -19 15 -26 8 -7 15 -19 15 -26 0 -8 9 -33
19 -57 11 -23 59 -134 107 -247 47 -113 94 -223 104 -245 10 -22 37 -85 60
-140 23 -55 53 -124 66 -153 13 -29 24 -55 24 -57 0 -2 11 -28 24 -57 13 -29
38 -87 55 -128 17 -41 38 -88 45 -105 7 -16 19 -43 26 -60 7 -16 16 -38 21
-48 5 -9 19 -43 31 -75 11 -31 28 -68 37 -82 9 -13 15 -27 14 -30 -1 -3 5 -18
12 -35 24 -52 90 -210 90 -215 1 -3 8 -18 17 -35 8 -16 19 -41 23 -55 4 -14
31 -75 61 -136 51 -108 109 -182 193 -248 80 -62 231 -105 346 -99 138 7 254
60 355 162 62 63 133 181 146 243 22 110 22 187 0 283 -7 29 -19 64 -36 100
-15 35 -31 72 -85 200 -7 17 -24 56 -39 88 -14 32 -26 60 -26 63 0 3 -11 30
-25 60 -14 30 -25 57 -25 59 0 2 -11 28 -24 57 -13 29 -70 161 -126 293 -56
132 -109 256 -117 275 -37 85 -52 120 -84 195 -18 44 -37 84 -41 90 -4 5 -8
17 -8 27 0 10 -4 18 -10 18 -5 0 -9 3 -8 8 0 4 -2 16 -7 27 -18 47 -59 143
-77 185 -40 88 -48 106 -79 180 -56 134 -61 145 -77 175 -9 17 -15 31 -14 33
2 1 -7 24 -18 50 -12 26 -31 69 -41 96 -11 27 -28 68 -38 90 -11 23 -38 86
-61 141 -23 55 -48 114 -55 130 -63 140 -74 166 -75 170 -2 12 -42 103 -56
128 -8 15 -13 27 -10 27 2 0 -13 38 -35 85 -21 47 -39 92 -39 100 0 8 -4 15
-10 15 -5 0 -10 6 -10 13 0 12 -46 125 -94 232 -8 17 -39 91 -71 165 -31 74
-63 149 -70 165 -14 31 -49 112 -67 155 -6 14 -12 30 -14 35 -1 6 -16 42 -34
80 -17 39 -35 79 -39 90 -5 11 -21 46 -35 78 -14 32 -26 60 -26 63 0 3 -9 24
-19 47 -10 23 -78 182 -151 352 -73 171 -138 324 -145 340 -7 17 -20 46 -28
65 -9 19 -50 116 -92 215 -42 99 -82 194 -90 210 -7 17 -46 106 -85 200 -40
93 -82 185 -92 205 -45 80 -91 150 -99 150 -5 0 -9 5 -9 10 0 20 -152 173
-217 218 -281 195 -500 279 -745 286 -54 2 -99 2 -100 1z"/>
</g>
</svg>
