<svg viewBox="0 0 20 20" fill="none" xmlns="http://www.w3.org/2000/svg">
<path d="M0.481725 19.5171C0.54622 19.5817 0.622809 19.6329 0.707113 19.6678C0.791417 19.7028 0.881783 19.7208 0.973044 19.7208C1.0643 19.7208 1.15467 19.7028 1.23897 19.6678C1.32328 19.6329 1.39987 19.5817 1.46436 19.5171L9.99909 10.9824L18.5373 19.5171C18.6676 19.6474 18.8443 19.7206 19.0286 19.7206C19.2129 19.7206 19.3896 19.6474 19.5199 19.5171C19.6502 19.3868 19.7234 19.2101 19.7234 19.0258C19.7234 18.8415 19.6502 18.6648 19.5199 18.5345L10.9817 9.99973L19.5164 1.46154C19.6468 1.33123 19.72 1.1545 19.72 0.970221C19.72 0.785941 19.6468 0.609208 19.5164 0.478902C19.3861 0.348596 19.2094 0.275391 19.0251 0.275391C18.8408 0.275391 18.6641 0.348596 18.5338 0.478902L9.99909 9.0171L1.46089 0.482374C1.32804 0.368606 1.15716 0.309157 0.982382 0.315908C0.807607 0.322659 0.641816 0.395112 0.518139 0.518788C0.394462 0.642465 0.322009 0.808256 0.315258 0.983031C0.308508 1.15781 0.367956 1.32869 0.481725 1.46154L9.01645 9.99973L0.481725 18.5379C0.352384 18.668 0.279785 18.844 0.279785 19.0275C0.279785 19.211 0.352384 19.387 0.481725 19.5171Z" fill="white"/>
</svg>
