<svg viewBox="0 0 40 40" fill="none" xmlns="http://www.w3.org/2000/svg">
<path d="M37.631 3.65053H32.88V1.35453C32.88 0.824371 32.4502 0.394531 31.92 0.394531C31.3898 0.394531 30.96 0.824371 30.96 1.35453V3.65053H9.04V1.35453C9.04 0.824371 8.61016 0.394531 8.08 0.394531C7.54984 0.394531 7.12 0.824371 7.12 1.35453V3.65053H2.26544C1.01624 3.65053 0 4.66685 0 5.91597V37.1072C0 38.4852 1.12104 39.6061 2.49904 39.6061H37.4983C38.8778 39.6061 40 38.4839 40 37.1045V6.01949C40 4.71325 38.9373 3.65053 37.631 3.65053V3.65053ZM38.08 37.1045C38.08 37.4253 37.819 37.6862 37.4983 37.6862H2.49904C2.17976 37.6862 1.92 37.4265 1.92 37.1073V12.6723H32.2662C32.7964 12.6723 33.2262 12.2425 33.2262 11.7123C33.2262 11.1821 32.7964 10.7523 32.2662 10.7523H1.92V5.91597C1.92 5.72549 2.07496 5.57053 2.26544 5.57053H7.12V6.71453C7.12 7.24469 7.54984 7.67453 8.08 7.67453C8.61016 7.67453 9.04 7.24469 9.04 6.71453V5.57053H30.96V6.71453C30.96 7.24469 31.3898 7.67453 31.92 7.67453C32.4502 7.67453 32.88 7.24469 32.88 6.71453V5.57053H37.631C37.8786 5.57053 38.08 5.77197 38.08 6.01949V37.1045Z" fill="black"/>
</svg>
